<svg width="66" height="66" viewBox="0 0 66 66" fill="none" xmlns="http://www.w3.org/2000/svg">
<g clip-path="url(#clip0)">
<path d="M39.0466 33.054L64.7457 7.35417C66.4182 5.6825 66.4182 2.97964 64.7457 1.30797C63.0741 -0.363703 60.3712 -0.363703 58.6995 1.30797L32.9996 27.0078L7.30054 1.30797C5.62809 -0.363703 2.92601 -0.363703 1.25434 1.30797C-0.418113 2.97964 -0.418113 5.6825 1.25434 7.35417L26.9534 33.054L1.25434 58.7539C-0.418113 60.4256 -0.418113 63.1284 1.25434 64.8001C2.08744 65.634 3.18283 66.0529 4.27744 66.0529C5.37205 66.0529 6.46666 65.634 7.30054 64.8001L32.9996 39.1002L58.6995 64.8001C59.5334 65.634 60.628 66.0529 61.7226 66.0529C62.8172 66.0529 63.9118 65.634 64.7457 64.8001C66.4182 63.1284 66.4182 60.4256 64.7457 58.7539L39.0466 33.054Z" fill="#7B5E5C"/>
</g>
<defs>
<clipPath id="clip0">
<rect width="66" height="66" fill="white"/>
</clipPath>
</defs>
</svg>
