<svg width="14" height="15" viewBox="0 0 14 15" fill="none" xmlns="http://www.w3.org/2000/svg">
<g clip-path="url(#clip0)">
<path d="M7 14.5C5.13026 14.5 3.37236 13.7719 2.05025 12.4498C0.728134 11.1276 0 9.36974 0 7.5C0 5.63026 0.728134 3.87236 2.05025 2.55025C3.37236 1.22813 5.13026 0.5 7 0.5C8.86974 0.5 10.6276 1.22813 11.9498 2.55025C13.2719 3.87236 14 5.63026 14 7.5C14 9.36974 13.2719 11.1276 11.9498 12.4498C10.6276 13.7719 8.86974 14.5 7 14.5ZM7 1.59375C3.74332 1.59375 1.09375 4.24332 1.09375 7.5C1.09375 10.7567 3.74332 13.4062 7 13.4062C10.2567 13.4062 12.9062 10.7567 12.9062 7.5C12.9062 4.24332 10.2567 1.59375 7 1.59375ZM9.88092 10.3809L9.1075 9.6075C7.94539 10.7696 6.05461 10.7696 4.8925 9.6075C3.73039 8.44539 3.73039 6.55461 4.8925 5.3925C6.05461 4.23039 7.94539 4.23039 9.1075 5.3925L9.88092 4.61908C8.29231 3.03058 5.70758 3.03058 4.11908 4.61908C2.53058 6.20769 2.53058 8.79242 4.11908 10.3809C4.91333 11.1752 5.95667 11.5723 7 11.5723C8.04323 11.5723 9.08667 11.1752 9.88092 10.3809Z" fill="#322724"/>
</g>
<defs>
<clipPath id="clip0">
<rect width="14" height="14" fill="white" transform="translate(0 0.5)"/>
</clipPath>
</defs>
</svg>
