<svg width="18" height="18" viewBox="0 0 18 18" fill="none" xmlns="http://www.w3.org/2000/svg">
<g clip-path="url(#clip0)">
<path d="M15.3625 2.63698C11.8462 -0.879363 6.15431 -0.879925 2.63748 2.63698C-0.878896 6.15332 -0.879423 11.8452 2.63748 15.362C6.15375 18.8784 11.8457 18.8789 15.3625 15.362C18.8789 11.8457 18.8794 6.15384 15.3625 2.63698ZM14.9864 14.0794C14.566 13.7035 14.1163 13.3708 13.6423 13.0841C13.9556 12.0018 14.1412 10.8109 14.1851 9.57292H16.8305C16.7109 11.2416 16.0698 12.8069 14.9864 14.0794ZM1.16943 9.57292H3.81485C3.85872 10.8109 4.04434 12.0018 4.35764 13.0841C3.88363 13.3708 3.43393 13.7035 3.01352 14.0794C1.93019 12.8069 1.28907 11.2416 1.16943 9.57292ZM3.01355 3.91963C3.43396 4.29556 3.88366 4.62825 4.35768 4.91497C4.04437 5.99721 3.85876 7.18814 3.81488 8.42611H1.16943C1.28907 6.75748 1.93019 5.19216 3.01355 3.91963ZM8.42661 5.03349C7.49144 4.9666 6.58975 4.73627 5.75382 4.3563C6.23999 3.10439 7.13623 1.60286 8.42661 1.23075V5.03349ZM8.42661 6.18244V8.42614H4.96215C5.00185 7.37892 5.15022 6.37332 5.397 5.45323C6.34695 5.8685 7.3686 6.1165 8.42661 6.18244ZM8.42661 9.57292V11.8166C7.3686 11.8826 6.34695 12.1306 5.397 12.5458C5.15022 11.6257 5.00185 10.6201 4.96215 9.57292H8.42661ZM8.42661 12.9656V16.7683C7.1363 16.3962 6.24006 14.8948 5.75382 13.6428C6.58975 13.2628 7.49144 13.0325 8.42661 12.9656ZM9.57338 12.9656C10.5085 13.0325 11.4102 13.2628 12.2462 13.6428C11.76 14.8947 10.8638 16.3962 9.57338 16.7683V12.9656ZM9.57338 11.8166V9.57292H13.0378C12.9981 10.6201 12.8498 11.6257 12.603 12.5458C11.653 12.1306 10.6314 11.8826 9.57338 11.8166ZM9.57338 8.42614V6.18244C10.6314 6.1165 11.653 5.8685 12.603 5.45323C12.8498 6.37332 12.9981 7.37892 13.0378 8.42614H9.57338ZM9.57338 5.03349V1.23079C10.8638 1.60289 11.76 3.10442 12.2462 4.35633C11.4102 4.73627 10.5085 4.9666 9.57338 5.03349ZM12.1489 1.80326C12.8829 2.12468 13.5677 2.5605 14.1816 3.10126C13.8894 3.35888 13.5811 3.59248 13.2591 3.80139C12.9732 3.0935 12.608 2.40556 12.1489 1.80326ZM4.74085 3.80139C4.4189 3.59248 4.11062 3.35888 3.8184 3.10126C4.43225 2.5605 5.11703 2.12468 5.85102 1.80326C5.39197 2.40563 5.02675 3.09357 4.74085 3.80139ZM4.74088 14.1977C5.02675 14.9055 5.39204 15.5935 5.85105 16.1958C5.11706 15.8744 4.43229 15.4386 3.81843 14.8978C4.11062 14.6402 4.41894 14.4066 4.74088 14.1977ZM13.2591 14.1977C13.5811 14.4066 13.8894 14.6402 14.1816 14.8978C13.5677 15.4385 12.8829 15.8743 12.1489 16.1958C12.6079 15.5935 12.9732 14.9056 13.2591 14.1977ZM14.1851 8.42614C14.1413 7.18818 13.9557 5.99721 13.6424 4.915C14.1164 4.62829 14.566 4.2956 14.9865 3.91966C16.0698 5.19216 16.7109 6.75748 16.8306 8.42614H14.1851Z" fill="#322724"/>
</g>
<defs>
<clipPath id="clip0">
<rect width="18" height="18" fill="white"/>
</clipPath>
</defs>
</svg>
