<svg width="22" height="22" viewBox="0 0 22 22" fill="none" xmlns="http://www.w3.org/2000/svg">
<g clip-path="url(#clip0)">
<path d="M19.4791 20.1809H2.52089C1.13028 20.1809 0 19.0506 0 17.66V6.20163C0 4.81102 1.13028 3.68091 2.52089 3.68091H8.02089C8.40039 3.68091 8.70839 3.98891 8.70839 4.36841C8.70839 4.74791 8.40039 5.05591 8.02089 5.05591H2.52089C1.88928 5.05591 1.375 5.57002 1.375 6.20163V17.66C1.375 18.2916 1.88928 18.8059 2.52089 18.8059H19.4791C20.1107 18.8059 20.625 18.2916 20.625 17.66V6.20163C20.625 5.57002 20.1107 5.05591 19.4791 5.05591H13.9791C13.5996 5.05591 13.2916 4.74791 13.2916 4.36841C13.2916 3.98891 13.5996 3.68091 13.9791 3.68091H19.4791C20.8697 3.68091 22 4.81102 22 6.20163V17.66C22 19.0506 20.8697 20.1809 19.4791 20.1809Z" fill="#322724"/>
<path d="M13.0631 6.88927H8.93809C8.05354 6.88927 7.33398 6.16971 7.33398 5.28516V3.45177C7.33398 2.56721 8.05354 1.84766 8.93809 1.84766H13.0631C13.9476 1.84766 14.6672 2.56721 14.6672 3.45177V5.28516C14.6672 6.16971 13.9476 6.88927 13.0631 6.88927ZM8.93809 3.22266C8.81154 3.22266 8.70898 3.32538 8.70898 3.45177V5.28516C8.70898 5.41171 8.81154 5.51427 8.93809 5.51427H13.0631C13.1897 5.51427 13.2922 5.41171 13.2922 5.28516V3.45177C13.2922 3.32538 13.1897 3.22266 13.0631 3.22266H8.93809Z" fill="#322724"/>
<path d="M6.8756 12.8478C5.61238 12.8478 4.58398 11.8192 4.58398 10.5562C4.58398 9.29297 5.61238 8.2644 6.8756 8.2644C8.13881 8.2644 9.16721 9.29297 9.16721 10.5562C9.16721 11.8192 8.13881 12.8478 6.8756 12.8478ZM6.8756 9.6394C6.37054 9.6394 5.95898 10.051 5.95898 10.5562C5.95898 11.0612 6.37054 11.4728 6.8756 11.4728C7.38065 11.4728 7.79221 11.0612 7.79221 10.5562C7.79221 10.051 7.38065 9.6394 6.8756 9.6394Z" fill="#322724"/>
<path d="M10.3125 17.4312C9.933 17.4312 9.625 17.1232 9.625 16.7437V16.2853C9.625 15.6537 9.11072 15.1394 8.47911 15.1394H5.27089C4.63928 15.1394 4.125 15.6537 4.125 16.2853V16.7437C4.125 17.1232 3.817 17.4312 3.4375 17.4312C3.058 17.4312 2.75 17.1232 2.75 16.7437V16.2853C2.75 14.8947 3.88028 13.7644 5.27089 13.7644H8.47911C9.86972 13.7644 11 14.8947 11 16.2853V16.7437C11 17.1232 10.692 17.4312 10.3125 17.4312Z" fill="#322724"/>
<path d="M18.5631 10.0977H13.5215C13.142 10.0977 12.834 9.78966 12.834 9.41016C12.834 9.03065 13.142 8.72266 13.5215 8.72266H18.5631C18.9426 8.72266 19.2506 9.03065 19.2506 9.41016C19.2506 9.78966 18.9426 10.0977 18.5631 10.0977Z" fill="#322724"/>
<path d="M18.5631 13.7644H13.5215C13.142 13.7644 12.834 13.4564 12.834 13.0769C12.834 12.6974 13.142 12.3894 13.5215 12.3894H18.5631C18.9426 12.3894 19.2506 12.6974 19.2506 13.0769C19.2506 13.4564 18.9426 13.7644 18.5631 13.7644Z" fill="#322724"/>
<path d="M18.5631 17.4309H13.5215C13.142 17.4309 12.834 17.1229 12.834 16.7434C12.834 16.3639 13.142 16.0559 13.5215 16.0559H18.5631C18.9426 16.0559 19.2506 16.3639 19.2506 16.7434C19.2506 17.1229 18.9426 17.4309 18.5631 17.4309Z" fill="#322724"/>
</g>
<defs>
<clipPath id="clip0">
<rect width="22" height="22" fill="white"/>
</clipPath>
</defs>
</svg>
