<svg width="43" height="43" viewBox="0 0 43 43" fill="none" xmlns="http://www.w3.org/2000/svg">
<path d="M38.8387 2.08063H4.16129C1.87258 2.08063 0 3.95321 0 6.24192C0 8.53063 1.87258 10.4032 4.16129 10.4032H38.8387C41.1274 10.4032 43 8.53063 43 6.24192C43 3.95321 41.1274 2.08063 38.8387 2.08063Z" fill="#7B5E5C"/>
<path d="M38.8387 17.3387H4.16129C1.87258 17.3387 0 19.2113 0 21.5C0 23.7887 1.87258 25.6613 4.16129 25.6613H38.8387C41.1274 25.6613 43 23.7887 43 21.5C43 19.2113 41.1274 17.3387 38.8387 17.3387Z" fill="#7B5E5C"/>
<path d="M38.8387 32.5967H4.16129C1.87258 32.5967 0 34.4693 0 36.758C0 39.0467 1.87258 40.9193 4.16129 40.9193H38.8387C41.1274 40.9193 43 39.0467 43 36.758C43 34.4693 41.1274 32.5967 38.8387 32.5967Z" fill="#7B5E5C"/>
</svg>
