<svg width="22" height="22" viewBox="0 0 22 22" fill="none" xmlns="http://www.w3.org/2000/svg">
<path d="M14.7362 0H7.30395C6.0404 0 4.9668 1.03027 4.9668 2.29347V19.7092C4.9668 20.9724 6.01769 22 7.28123 22L14.7257 21.992C15.9891 21.992 17.0227 20.9641 17.0227 19.7008L17.0335 2.29225C17.0333 1.0245 16.0048 0 14.7362 0ZM9.94638 1.37503H12.1027C12.2921 1.37503 12.4464 1.5288 12.4464 1.71875C12.4464 1.90869 12.2921 2.06246 12.1027 2.06246H9.94638C9.75643 2.06246 9.60266 1.90869 9.60266 1.71875C9.60266 1.5288 9.75643 1.37503 9.94638 1.37503ZM8.65068 1.48442C8.77806 1.35721 9.00994 1.35546 9.13715 1.48442C9.20093 1.54803 9.23868 1.63732 9.23868 1.72853C9.23868 1.818 9.20093 1.90712 9.13715 1.9709C9.07372 2.03468 8.98408 2.07225 8.89479 2.07225C8.80375 2.07225 8.7162 2.03468 8.65068 1.9709C8.58724 1.90729 8.55107 1.818 8.55107 1.72853C8.5509 1.63732 8.58724 1.54803 8.65068 1.48442ZM10.9552 21.3187C10.3879 21.3187 9.92663 20.857 9.92663 20.29C9.92663 19.7228 10.3879 19.2613 10.9552 19.2613C11.5224 19.2613 11.9837 19.7228 11.9837 20.29C11.9837 20.857 11.5222 21.3187 10.9552 21.3187ZM15.9665 18.5622H6.16988V3.26572H15.9665V18.5622Z" fill="#322724"/>
</svg>
