<svg width="45" height="45" viewBox="0 0 45 45" fill="none" xmlns="http://www.w3.org/2000/svg">
<path d="M30.142 0H14.9397C12.3552 0 10.1592 2.10737 10.1592 4.69119V40.3142C10.1592 42.898 12.3087 45 14.8933 45L30.1206 44.9836C32.7048 44.9836 34.8189 42.8812 34.8189 40.297L34.8411 4.68868C34.8407 2.09558 32.7369 0 30.142 0ZM20.3447 2.81257H24.7553C25.1427 2.81257 25.4583 3.1271 25.4583 3.51562C25.4583 3.90414 25.1427 4.21867 24.7553 4.21867H20.3447C19.9562 4.21867 19.6416 3.90414 19.6416 3.51562C19.6416 3.1271 19.9562 2.81257 20.3447 2.81257ZM17.6944 3.03631C17.9549 2.77611 18.4292 2.77254 18.6895 3.03631C18.8199 3.16642 18.8971 3.34906 18.8971 3.53564C18.8971 3.71864 18.8199 3.90092 18.6895 4.03138C18.5597 4.16184 18.3764 4.23869 18.1937 4.23869C18.0075 4.23869 17.8284 4.16184 17.6944 4.03138C17.5646 3.90128 17.4907 3.71864 17.4907 3.53564C17.4903 3.34906 17.5646 3.16642 17.6944 3.03631ZM22.4081 43.6064C21.2479 43.6064 20.3043 42.6621 20.3043 41.5023C20.3043 40.3421 21.2479 39.3981 22.4081 39.3981C23.5683 39.3981 24.5119 40.3421 24.5119 41.5023C24.5119 42.6621 23.5679 43.6064 22.4081 43.6064ZM32.6586 37.968H12.62V6.67989H32.6586V37.968Z" fill="#4E7824"/>
</svg>
